<svg xmlns="http://www.w3.org/2000/svg" viewBox="0 0 880 620" font-family="'Segoe UI', system-ui, -apple-system, sans-serif">
  <defs>
    <linearGradient id="bgGrad" x1="0%" y1="0%" x2="100%" y2="100%">
      <stop offset="0%" style="stop-color:#0f172a;stop-opacity:1" />
      <stop offset="100%" style="stop-color:#1e293b;stop-opacity:1" />
    </linearGradient>
    <linearGradient id="plannerGrad" x1="0%" y1="0%" x2="0%" y2="100%">
      <stop offset="0%" style="stop-color:#6366f1" />
      <stop offset="100%" style="stop-color:#4f46e5" />
    </linearGradient>
    <linearGradient id="genGrad" x1="0%" y1="0%" x2="0%" y2="100%">
      <stop offset="0%" style="stop-color:#3b82f6" />
      <stop offset="100%" style="stop-color:#2563eb" />
    </linearGradient>
    <linearGradient id="evalGrad" x1="0%" y1="0%" x2="0%" y2="100%">
      <stop offset="0%" style="stop-color:#f59e0b" />
      <stop offset="100%" style="stop-color:#d97706" />
    </linearGradient>
    <linearGradient id="modelGrad" x1="0%" y1="0%" x2="0%" y2="100%">
      <stop offset="0%" style="stop-color:#ef4444" />
      <stop offset="100%" style="stop-color:#dc2626" />
    </linearGradient>
    <linearGradient id="passGrad" x1="0%" y1="0%" x2="0%" y2="100%">
      <stop offset="0%" style="stop-color:#22c55e" />
      <stop offset="100%" style="stop-color:#16a34a" />
    </linearGradient>
    <linearGradient id="hookGrad" x1="0%" y1="0%" x2="0%" y2="100%">
      <stop offset="0%" style="stop-color:#e11d48" />
      <stop offset="100%" style="stop-color:#be123c" />
    </linearGradient>
    <filter id="shadow" x="-5%" y="-5%" width="115%" height="115%">
      <feDropShadow dx="0" dy="2" stdDeviation="4" flood-color="#000" flood-opacity="0.3"/>
    </filter>
    <filter id="glow">
      <feGaussianBlur stdDeviation="3" result="blur"/>
      <feMerge><feMergeNode in="blur"/><feMergeNode in="SourceGraphic"/></feMerge>
    </filter>
  </defs>

  <!-- Background -->
  <rect width="880" height="620" rx="16" fill="url(#bgGrad)"/>
  <rect x="1" y="1" width="878" height="618" rx="15" fill="none" stroke="#334155" stroke-width="1"/>

  <!-- Title -->
  <text x="440" y="42" text-anchor="middle" fill="#f8fafc" font-size="22" font-weight="700" letter-spacing="2">AHOY</text>
  <text x="440" y="62" text-anchor="middle" fill="#94a3b8" font-size="11">Agent Harness for Orchestrated Yielding</text>

  <!-- User Prompt -->
  <rect x="340" y="80" width="200" height="40" rx="20" fill="#334155" filter="url(#shadow)"/>
  <text x="440" y="105" text-anchor="middle" fill="#e2e8f0" font-size="13" font-weight="600">User Prompt</text>

  <!-- Arrow: Prompt → Planner -->
  <line x1="440" y1="120" x2="440" y2="145" stroke="#64748b" stroke-width="2" marker-end="url(#arrowGray)"/>
  <defs><marker id="arrowGray" markerWidth="8" markerHeight="6" refX="8" refY="3" orient="auto"><polygon points="0 0, 8 3, 0 6" fill="#64748b"/></marker></defs>

  <!-- Planner -->
  <rect x="310" y="148" width="260" height="50" rx="12" fill="url(#plannerGrad)" filter="url(#shadow)"/>
  <text x="440" y="170" text-anchor="middle" fill="#fff" font-size="14" font-weight="700">Planner</text>
  <text x="440" y="187" text-anchor="middle" fill="#c7d2fe" font-size="10">spec.md + sprint contracts</text>

  <!-- Arrow: Planner → Sprint Loop -->
  <line x1="440" y1="198" x2="440" y2="228" stroke="#64748b" stroke-width="2" marker-end="url(#arrowGray)"/>

  <!-- Sprint Loop Container -->
  <rect x="60" y="230" width="760" height="340" rx="16" fill="none" stroke="#475569" stroke-width="2" stroke-dasharray="8 4"/>
  <rect x="75" y="220" width="130" height="22" rx="4" fill="#1e293b"/>
  <text x="140" y="235" text-anchor="middle" fill="#94a3b8" font-size="12" font-weight="600">Sprint Loop</text>

  <!-- Generator Box -->
  <rect x="100" y="265" width="300" height="80" rx="12" fill="url(#genGrad)" filter="url(#shadow)"/>
  <text x="250" y="296" text-anchor="middle" fill="#fff" font-size="15" font-weight="700">Generator</text>
  <text x="250" y="316" text-anchor="middle" fill="#bfdbfe" font-size="11">Claude — code + tests</text>
  <text x="250" y="332" text-anchor="middle" fill="#93c5fd" font-size="9" font-style="italic">self-evaluation prohibited</text>

  <!-- Arrow: Generator → Filter -->
  <line x1="250" y1="345" x2="250" y2="370" stroke="#64748b" stroke-width="2" marker-end="url(#arrowGray)"/>

  <!-- Opinion Filter -->
  <rect x="155" y="372" width="190" height="32" rx="8" fill="#334155" stroke="#ef4444" stroke-width="1.5"/>
  <text x="250" y="393" text-anchor="middle" fill="#fca5a5" font-size="10" font-weight="600">Opinion Filter</text>

  <!-- Arrow: Filter → Evaluator -->
  <line x1="250" y1="404" x2="250" y2="425" stroke="#64748b" stroke-width="2" marker-end="url(#arrowGray)"/>

  <!-- Evaluator Box -->
  <rect x="100" y="428" width="300" height="55" rx="12" fill="url(#evalGrad)" filter="url(#shadow)"/>
  <text x="250" y="455" text-anchor="middle" fill="#fff" font-size="15" font-weight="700">Evaluator</text>
  <text x="250" y="472" text-anchor="middle" fill="#fef3c7" font-size="10">eval_dispatch.py (subprocess)</text>

  <!-- External Models -->
  <rect x="480" y="265" width="140" height="50" rx="10" fill="url(#modelGrad)" filter="url(#shadow)"/>
  <text x="550" y="287" text-anchor="middle" fill="#fff" font-size="12" font-weight="700">Codex</text>
  <text x="550" y="303" text-anchor="middle" fill="#fecaca" font-size="9">OpenAI CLI</text>

  <rect x="480" y="330" width="140" height="50" rx="10" fill="url(#modelGrad)" filter="url(#shadow)"/>
  <text x="550" y="352" text-anchor="middle" fill="#fff" font-size="12" font-weight="700">Gemini</text>
  <text x="550" y="368" text-anchor="middle" fill="#fecaca" font-size="9">Google CLI</text>

  <rect x="480" y="395" width="140" height="50" rx="10" fill="url(#modelGrad)" filter="url(#shadow)"/>
  <text x="550" y="417" text-anchor="middle" fill="#fff" font-size="12" font-weight="700">Claude CLI</text>
  <text x="550" y="433" text-anchor="middle" fill="#fecaca" font-size="9">separate process</text>

  <!-- Arrow: Evaluator → Models -->
  <line x1="400" y1="455" x2="475" y2="420" stroke="#f59e0b" stroke-width="2" marker-end="url(#arrowYellow)"/>
  <defs><marker id="arrowYellow" markerWidth="8" markerHeight="6" refX="8" refY="3" orient="auto"><polygon points="0 0, 8 3, 0 6" fill="#f59e0b"/></marker></defs>

  <!-- Consensus -->
  <rect x="660" y="320" width="140" height="70" rx="12" fill="#334155" stroke="#f59e0b" stroke-width="2" filter="url(#shadow)"/>
  <text x="730" y="348" text-anchor="middle" fill="#fbbf24" font-size="12" font-weight="700">Consensus</text>
  <text x="730" y="365" text-anchor="middle" fill="#94a3b8" font-size="9">any fail = final fail</text>
  <text x="730" y="378" text-anchor="middle" fill="#94a3b8" font-size="9">min 2 valid models</text>

  <!-- Arrows: Models → Consensus -->
  <line x1="620" y1="290" x2="655" y2="335" stroke="#64748b" stroke-width="1.5" marker-end="url(#arrowGray)"/>
  <line x1="620" y1="355" x2="655" y2="355" stroke="#64748b" stroke-width="1.5" marker-end="url(#arrowGray)"/>
  <line x1="620" y1="420" x2="655" y2="375" stroke="#64748b" stroke-width="1.5" marker-end="url(#arrowGray)"/>

  <!-- Pass / Fail Outcomes -->
  <rect x="670" y="430" width="120" height="36" rx="18" fill="url(#passGrad)" filter="url(#shadow)"/>
  <text x="730" y="453" text-anchor="middle" fill="#fff" font-size="12" font-weight="700">PASS</text>

  <rect x="670" y="480" width="120" height="36" rx="18" fill="url(#modelGrad)" filter="url(#shadow)"/>
  <text x="730" y="503" text-anchor="middle" fill="#fff" font-size="12" font-weight="700">FAIL</text>

  <!-- Arrows: Consensus → Pass/Fail -->
  <line x1="730" y1="390" x2="730" y2="426" stroke="#22c55e" stroke-width="2" marker-end="url(#arrowGreen)"/>
  <defs><marker id="arrowGreen" markerWidth="8" markerHeight="6" refX="8" refY="3" orient="auto"><polygon points="0 0, 8 3, 0 6" fill="#22c55e"/></marker></defs>

  <line x1="730" y1="466" x2="730" y2="476" stroke="#ef4444" stroke-width="2" marker-end="url(#arrowRed)"/>
  <defs><marker id="arrowRed" markerWidth="8" markerHeight="6" refX="8" refY="3" orient="auto"><polygon points="0 0, 8 3, 0 6" fill="#ef4444"/></marker></defs>

  <!-- Pass → Next Sprint -->
  <text x="730" y="540" text-anchor="middle" fill="#86efac" font-size="10" font-weight="600">→ next sprint</text>

  <!-- Fail → Rework arrow (curved back to Generator) -->
  <path d="M 670 498 L 80 498 L 80 305 L 96 305" fill="none" stroke="#ef4444" stroke-width="2" stroke-dasharray="6 3" marker-end="url(#arrowRed)"/>
  <rect x="60" y="488" width="100" height="22" rx="4" fill="#1e293b"/>
  <text x="110" y="503" text-anchor="middle" fill="#fca5a5" font-size="10" font-weight="600">rework (≤3)</text>

  <!-- Hook Shield Icons -->
  <rect x="100" y="530" width="300" height="28" rx="6" fill="url(#hookGrad)" opacity="0.9"/>
  <text x="250" y="549" text-anchor="middle" fill="#fff" font-size="10" font-weight="700">HOOKS — shell-level enforcement, not prompts</text>

  <!-- Legend -->
  <rect x="640" y="558" width="12" height="12" rx="3" fill="url(#genGrad)"/>
  <text x="658" y="569" fill="#94a3b8" font-size="9">Generator (Claude)</text>
  <rect x="640" y="576" width="12" height="12" rx="3" fill="url(#modelGrad)"/>
  <text x="658" y="587" fill="#94a3b8" font-size="9">External Models</text>
  <rect x="640" y="594" width="12" height="12" rx="3" fill="url(#hookGrad)"/>
  <text x="658" y="605" fill="#94a3b8" font-size="9">Safety Layer</text>
</svg>
